<svg width="32" height="32" viewBox="0 0 32 32" fill="none" xmlns="http://www.w3.org/2000/svg">
<rect width="32" height="32" rx="4" fill="#E1EBF6"/>
<mask id="path-2-inside-1_347_690" fill="white">
<path d="M14.8776 3.68735C15.1792 2.77085 16.4757 2.7709 16.7773 3.68742L19.2074 11.0718C19.3401 11.4752 19.7132 11.7508 20.1378 11.7591L27.6728 11.9059C28.6102 11.9241 29.0093 13.1065 28.2747 13.6892L22.1811 18.5221C21.8629 18.7744 21.729 19.1941 21.8421 19.5841L24.0486 27.1923C24.3145 28.1093 23.2666 28.8419 22.4967 28.2771L16.419 23.8188C16.067 23.5606 15.5881 23.5606 15.2361 23.8188L9.15843 28.2771C8.38849 28.8419 7.34055 28.1093 7.60652 27.1923L9.81301 19.5841C9.92612 19.1941 9.79215 18.7744 9.47399 18.5221L3.38041 13.6892C2.64577 13.1065 3.04486 11.9241 3.98233 11.9059L11.5166 11.7591C11.9411 11.7508 12.3142 11.4753 12.447 11.0719L14.8776 3.68735Z"/>
</mask>
<path d="M14.8776 3.68735C15.1792 2.77085 16.4757 2.7709 16.7773 3.68742L19.2074 11.0718C19.3401 11.4752 19.7132 11.7508 20.1378 11.7591L27.6728 11.9059C28.6102 11.9241 29.0093 13.1065 28.2747 13.6892L22.1811 18.5221C21.8629 18.7744 21.729 19.1941 21.8421 19.5841L24.0486 27.1923C24.3145 28.1093 23.2666 28.8419 22.4967 28.2771L16.419 23.8188C16.067 23.5606 15.5881 23.5606 15.2361 23.8188L9.15843 28.2771C8.38849 28.8419 7.34055 28.1093 7.60652 27.1923L9.81301 19.5841C9.92612 19.1941 9.79215 18.7744 9.47399 18.5221L3.38041 13.6892C2.64577 13.1065 3.04486 11.9241 3.98233 11.9059L11.5166 11.7591C11.9411 11.7508 12.3142 11.4753 12.447 11.0719L14.8776 3.68735Z" fill="#C6C6C6"/>
<path d="M3.98233 11.9059L3.96869 11.206L3.98233 11.9059ZM9.81301 19.5841L10.4853 19.7791L9.81301 19.5841ZM9.47399 18.5221L9.03901 19.0705L9.47399 18.5221ZM9.15843 28.2771L9.57246 28.8415L9.15843 28.2771ZM16.419 23.8188L16.8331 23.2544L16.419 23.8188ZM15.2361 23.8188L15.6501 24.3832L15.2361 23.8188ZM24.0486 27.1923L23.3763 27.3872L24.0486 27.1923ZM22.4967 28.2771L22.9107 27.7127L22.4967 28.2771ZM22.1811 18.5221L22.6161 19.0705L22.1811 18.5221ZM21.8421 19.5841L21.1698 19.7791L21.8421 19.5841ZM28.2747 13.6892L28.7097 14.2376L28.2747 13.6892ZM19.2074 11.0718L18.5424 11.2906L19.2074 11.0718ZM16.1124 3.90623L18.5424 11.2906L19.8723 10.853L17.4423 3.46861L16.1124 3.90623ZM20.1241 12.4589L27.6591 12.6057L27.6864 11.206L20.1514 11.0592L20.1241 12.4589ZM27.8397 13.1407L21.7461 17.9736L22.6161 19.0705L28.7097 14.2376L27.8397 13.1407ZM21.1698 19.7791L23.3763 27.3872L24.7209 26.9973L22.5144 19.3891L21.1698 19.7791ZM22.9107 27.7127L16.8331 23.2544L16.005 24.3832L22.0826 28.8415L22.9107 27.7127ZM14.822 23.2544L8.74439 27.7127L9.57246 28.8415L15.6501 24.3832L14.822 23.2544ZM8.27882 27.3872L10.4853 19.7791L9.14071 19.3891L6.93423 26.9973L8.27882 27.3872ZM9.90897 17.9736L3.81539 13.1407L2.94543 14.2376L9.03901 19.0705L9.90897 17.9736ZM3.99597 12.6057L11.5302 12.4589L11.5029 11.0592L3.96869 11.206L3.99597 12.6057ZM13.1119 11.2908L15.5425 3.9062L14.2127 3.4685L11.7821 10.853L13.1119 11.2908ZM11.5302 12.4589C12.252 12.4449 12.8862 11.9765 13.1119 11.2908L11.7821 10.853C11.7422 10.9741 11.6303 11.0567 11.5029 11.0592L11.5302 12.4589ZM3.81539 13.1407C3.595 12.9659 3.71473 12.6112 3.99597 12.6057L3.96869 11.206C2.37499 11.2371 1.69654 13.2471 2.94543 14.2376L3.81539 13.1407ZM10.4853 19.7791C10.6776 19.1161 10.4498 18.4026 9.90897 17.9736L9.03901 19.0705C9.13445 19.1462 9.17465 19.2721 9.14071 19.3891L10.4853 19.7791ZM8.74439 27.7127C8.51341 27.8821 8.19903 27.6624 8.27882 27.3872L6.93423 26.9973C6.48207 28.5563 8.26356 29.8017 9.57246 28.8415L8.74439 27.7127ZM16.8331 23.2544C16.2346 22.8154 15.4205 22.8154 14.822 23.2544L15.6501 24.3832C15.7557 24.3058 15.8994 24.3058 16.005 24.3832L16.8331 23.2544ZM23.3763 27.3872C23.4561 27.6624 23.1417 27.8821 22.9107 27.7127L22.0826 28.8415C23.3915 29.8017 25.173 28.5563 24.7209 26.9973L23.3763 27.3872ZM21.7461 17.9736C21.2053 18.4026 20.9775 19.1161 21.1698 19.7791L22.5144 19.3891C22.4804 19.2721 22.5206 19.1462 22.6161 19.0705L21.7461 17.9736ZM27.6591 12.6057C27.9404 12.6112 28.0601 12.9659 27.8397 13.1407L28.7097 14.2376C29.9586 13.2471 29.2801 11.2371 27.6864 11.206L27.6591 12.6057ZM18.5424 11.2906C18.7681 11.9764 19.4023 12.4449 20.1241 12.4589L20.1514 11.0592C20.024 11.0567 19.9121 10.974 19.8723 10.853L18.5424 11.2906ZM17.4423 3.46861C16.9295 1.91053 14.7255 1.91044 14.2127 3.4685L15.5425 3.9062C15.633 3.63126 16.0219 3.63126 16.1124 3.90623L17.4423 3.46861Z" fill="#0E00AF" mask="url(#path-2-inside-1_347_690)"/>
</svg>
